#!OML:ASF X:\für Bonn\!DataBase\2005_08_11_Bastian_Final\c3d\Bastian.ASF
:FULLY-SPECIFIED
:DEGREES
219
root -5.292 17.5258 -2.79939 163.9 -36.7867 -175.644
lowerback 10.5919 -2.23967 3.65057
upperback 4.69854 -2.98636 -1.96135
thorax -1.31212 -1.57551 -3.73905
lowerneck -3.12768 -15.1052 -4.683
upperneck -10.8827 -20.3721 18.479
head -0.260708 -10.8889 5.70825
rclavicle 6.15984e-014 9.54166e-015
rhumerus -421.524 21.4153 -475.101
rradius 35.7396
rwrist -68.2361
rhand -36.5377 1071.53
rfingers 7.12502
rthumb -9.62863 -38.2331
lclavicle 6.15984e-014 9.54166e-015
lhumerus -132.5 40.6209 -65.2961
lradius 23.6712
lwrist -238.42
lhand -18.9616 12.1308
lfingers 7.12502
lthumb 7.34223 41.9834
rfemur -6.2453 6.90444 23.829
rtibia 34.7458
rfoot -8.87427 -4.40317
rtoes -4.30671
lfemur 12.9967 2.62707 -15.3114
ltibia 36.076
lfoot -13.9158 -3.3162
ltoes -14.5149
220
root -5.27618 17.5215 -2.74266 163.846 -36.3273 -175.509
lowerback 10.7807 -2.30129 3.68611
upperback 4.79234 -3.07002 -1.87927
thorax -1.32179 -1.62158 -3.65806
lowerneck -3.12264 -14.9172 -4.57496
upperneck -11.0092 -20.1175 18.4842
head -0.336453 -10.7802 5.72446
rclavicle -1.5499e-014 -1.11319e-014
rhumerus -423.15 22.3428 -476.727
rradius 36.1045
rwrist -67.91
rhand -35.6346 1070.76
rfingers 7.12502
rthumb -8.75719 -39.0335
lclavicle -1.5499e-014 -1.11319e-014
lhumerus -130.914 39.6877 -64.5067
lradius 24.4202
lwrist -239.258
lhand -18.9255 9.88876
lfingers 7.12502
lthumb 7.37711 39.7401
rfemur -6.52553 7.39589 24.0169
rtibia 34.738
rfoot -8.4943 -4.4493
rtoes -4.02446
lfemur 13.4648 2.11233 -15.1998
ltibia 36.2221
lfoot -13.7619 -3.17267
ltoes -12.6834
221
root -5.259 17.5167 -2.68454 163.779 -35.8274 -175.363
lowerback 10.9533 -2.3502 3.68531
upperback 4.91494 -3.14381 -1.78507
thorax -1.28902 -1.66325 -3.54633
lowerneck -3.20797 -14.7209 -4.39241
upperneck -11.0728 -19.8577 18.4135
head -0.396341 -10.6627 5.69946
rclavicle 7.08046e-014 -7.95139e-016
rhumerus -424.381 22.8169 -477.769
rradius 36.3377
rwrist -66.6692
rhand -34.7369 1070.1
rfingers 7.12502
rthumb -7.89086 -39.7362
lclavicle 7.08046e-014 -7.95139e-016
lhumerus -128.692 39.2861 -62.7838
lradius 24.718
lwrist -239.938
lhand -18.9671 7.8419
lfingers 7.12502
lthumb 7.33695 37.6947
rfemur -6.78367 7.94004 24.2315
rtibia 34.7026
rfoot -8.08882 -4.5203
rtoes -3.9015
lfemur 13.946 1.61463 -15.0834
ltibia 36.3294
lfoot -13.6406 -3.02363
ltoes -11.0293
222
root -5.23978 17.5061 -2.62124 163.756 -35.3581 -175.223
lowerback 11.1201 -2.41253 3.67789
upperback 5.00596 -3.23384 -1.70958
thorax -1.28779 -1.71306 -3.44743
lowerneck -3.18579 -14.5126 -4.14413
upperneck -11.2125 -19.5787 18.3339
head -0.505019 -10.5464 5.67845
rclavicle 4.18317e-014 -9.54166e-015
rhumerus -425.274 22.7535 -478.133
rradius 36.5229
rwrist -64.6429
rhand -33.842 1069.56
rfingers 7.12502
rthumb -7.02705 -40.2998
lclavicle 4.18317e-014 -9.54166e-015
lhumerus -125.535 39.4356 -59.7222
lradius 24.584
lwrist -240.175
lhand -19.249 5.95758
lfingers 7.12502
lthumb 7.06475 35.8197
rfemur -7.11792 8.43633 24.4211
rtibia 34.6683
rfoot -7.65861 -4.59474
rtoes -3.85012
lfemur 14.366 1.10932 -14.982
ltibia 36.3869
lfoot -13.514 -2.95685
ltoes -10.2054
223
root -5.22068 17.4972 -2.5562 163.768 -34.8469 -175.107
lowerback 11.2453 -2.46049 3.63121
upperback 5.10571 -3.31056 -1.61553
thorax -1.2504 -1.75637 -3.31065
lowerneck -3.19487 -14.2943 -3.97272
upperneck -11.3172 -19.2859 18.2747
head -0.588929 -10.4178 5.6676
rclavicle -3.53837e-014 -7.95139e-016
rhumerus -425.882 22.5304 -478.071
rradius 36.6592
rwrist -62.5264
rhand -33.0345 1069.38
rfingers 7.12502
rthumb -6.24757 -40.5048
lclavicle -3.53837e-014 -7.95139e-016
lhumerus -121.471 39.9685 -55.1105
lradius 24.1697
lwrist -239.764
lhand -19.8381 4.30231
lfingers 7.12502
lthumb 6.49608 34.1827
rfemur -7.47048 8.97415 24.5873
rtibia 34.6278
rfoot -7.26368 -4.64587
rtoes -3.94037
lfemur 14.7775 0.678665 -14.8921
ltibia 36.3674
lfoot -13.3777 -2.95433
ltoes -10.9388
224
root -5.20008 17.4908 -2.48653 163.791 -34.3223 -174.917
lowerback 11.3371 -2.51155 3.63768
upperback 5.19515 -3.38521 -1.49738
thorax -1.20622 -1.79769 -3.18009
lowerneck -3.18389 -14.0722 -3.78943
upperneck -11.4363 -18.9865 18.2027
head -0.683094 -10.2874 5.65385
rclavicle -1.44864e-014 -1.27222e-014
rhumerus -426.36 22.4188 -477.967
rradius 36.8901
rwrist -60.8415
rhand -32.5256 1069.4
rfingers 7.12502
rthumb -5.75623 -40.5054
lclavicle -1.44864e-014 -1.27222e-014
lhumerus -116.201 40.7865 -48.3936
lradius 23.69
lwrist -238.223
lhand -20.7655 2.88114
lfingers 7.12502
lthumb 5.60079 32.7871
rfemur -7.88251 9.50357 24.8079
rtibia 34.5773
rfoot -6.87862 -4.70291
rtoes -4.34327
lfemur 15.1021 0.239306 -14.736
ltibia 36.2824
lfoot -13.2115 -3.03604
ltoes -12.2521
225
root -5.179 17.4866 -2.41393 163.857 -33.7827 -174.791
lowerback 11.43 -2.55286 3.56822
upperback 5.26957 -3.45377 -1.37863
thorax -1.17366 -1.83717 -3.00652
lowerneck -3.12934 -13.8495 -3.62673
upperneck -11.5582 -18.6831 18.1191
head -0.784141 -10.1547 5.64256
rclavicle -2.00027e-014 -3.18055e-015
rhumerus -426.791 22.3893 -477.774
rradius 37.2402
rwrist -59.7834
rhand -32.1809 1069.71
rfingers 7.12502
rthumb -5.42342 -40.1983
lclavicle -2.00027e-014 -3.18055e-015
lhumerus -110.011 41.3388 -40.0313
lradius 23.237
lwrist -235.846
lhand -22.0066 1.92545
lfingers 7.12502
lthumb 4.40239 31.8597
rfemur -8.29834 10.0025 24.9547
rtibia 34.4931
rfoot -6.45592 -4.68168
rtoes -4.67336
lfemur 15.4133 -0.212351 -14.6504
ltibia 36.1102
lfoot -12.9746 -3.14479
ltoes -13.4088
226
root -5.15701 17.4822 -2.33887 163.922 -33.2269 -174.673
lowerback 11.5278 -2.58138 3.50038
upperback 5.36901 -3.50911 -1.27901
thorax -1.11726 -1.87063 -2.85613
lowerneck -3.07904 -13.6223 -3.44857
upperneck -11.7266 -18.3747 18.0728
head -0.895577 -10.0259 5.64104
rclavicle -7.05934e-014 3.57812e-014
rhumerus -426.938 22.2169 -477.271
rradius 37.595
rwrist -59.0957
rhand -31.8928 1070.25
rfingers 7.12502
rthumb -5.14518 -39.6688
lclavicle -7.05934e-014 3.57812e-014
lhumerus -103.625 41.3331 -31.18
lradius 22.7714
lwrist -233.378
lhand -23.3197 1.71035
lfingers 7.12502
lthumb 3.13438 31.6671
rfemur -8.71342 10.4385 25.0871
rtibia 34.4027
rfoot -6.03886 -4.57849
rtoes -5.13866
lfemur 15.7436 -0.640976 -14.5664
ltibia 35.8113
lfoot -12.8106 -3.31927
ltoes -14.9117
227
root -5.13412 17.4783 -2.26067 164.049 -32.6553 -174.55
lowerback 11.605 -2.60344 3.40527
upperback 5.42281 -3.55374 -1.15522
thorax -1.09351 -1.89863 -2.66633
lowerneck -3.02179 -13.4047 -3.30269
upperneck -11.8323 -18.0783 17.9827
head -0.989536 -9.89471 5.62676
rclavicle 2.55935e-015 7.15625e-015
rhumerus -426.996 21.943 -476.498
rradius 38.0332
rwrist -58.7519
rhand -31.5649 1070.9
rfingers 7.12502
rthumb -4.82861 -39.0237
lclavicle 2.55935e-015 7.15625e-015
lhumerus -97.3494 40.5915 -22.1899
lradius 22.2402
lwrist -230.824
lhand -24.395 2.30816
lfingers 7.12502
lthumb 2.0959 32.2776
rfemur -9.22628 10.8275 25.1927
rtibia 34.3397
rfoot -5.60468 -4.40243
rtoes -5.2048
lfemur 16.0292 -1.04123 -14.4615
ltibia 35.3464
lfoot -12.672 -3.62145
ltoes -16.5716
